<?xml version="1.0" standalone="no"?>
<!DOCTYPE svg PUBLIC "-//W3C//DTD SVG 20010904//EN"
 "http://www.w3.org/TR/2001/REC-SVG-20010904/DTD/svg10.dtd">
<svg version="1.0" xmlns="http://www.w3.org/2000/svg"
 width="108.000000pt" height="107.000000pt" viewBox="0 0 108.000000 107.000000"
 preserveAspectRatio="xMidYMid meet">
<metadata>
</metadata>
<g transform="translate(0.000000,107.000000) scale(0.100000,-0.100000)"
fill="#4a4a4a" stroke="none">
<path d="M370 1047 c-92 -31 -156 -71 -222 -138 -200 -204 -197 -549 7 -753
107 -107 228 -156 388 -156 185 0 348 89 449 245 101 156 110 372 23 546 -56
109 -191 222 -313 259 -92 29 -244 27 -332 -3z m140 -122 l0 -105 -62 0 c-35
-1 -83 -5 -108 -10 -25 -4 -47 -7 -48 -5 -8 8 55 110 91 147 30 30 102 76 125
78 1 0 2 -47 2 -105z m169 39 c54 -48 127 -172 95 -160 -10 4 -63 10 -116 13
l-98 6 0 103 0 102 36 -11 c20 -6 58 -30 83 -53z m-369 -26 c-22 -29 -48 -74
-57 -99 -17 -47 -17 -47 -77 -57 -34 -5 -63 -8 -65 -6 -7 7 72 104 108 134 32
24 119 79 128 80 2 0 -15 -24 -37 -52z m542 -27 c41 -35 121 -131 115 -137 -2
-2 -31 1 -65 7 -57 10 -62 13 -73 46 -6 19 -30 63 -54 99 l-44 64 41 -22 c22
-13 58 -38 80 -57z m-342 -241 l0 -110 -135 0 c-133 0 -135 0 -135 23 1 48 28
160 41 168 7 4 43 11 79 14 36 4 70 8 75 10 6 2 25 4 43 4 l32 1 0 -110z m175
100 c128 -18 121 -14 134 -77 6 -31 11 -74 11 -95 l0 -38 -135 0 -135 0 0 110
0 110 28 0 c15 0 59 -5 97 -10z m-470 -51 c-4 -11 -10 -50 -13 -87 l-7 -67
-72 -3 -73 -3 0 29 c0 15 7 51 15 79 15 51 16 52 68 61 84 15 89 15 82 -9z
m746 5 c39 -7 50 -26 65 -121 l7 -43 -75 0 -75 0 -6 58 c-4 31 -9 72 -13 91
l-7 34 34 -7 c19 -3 50 -9 70 -12z m-759 -286 c3 -37 9 -77 13 -89 6 -19 4
-21 -16 -16 -13 3 -45 9 -71 12 -47 7 -48 8 -63 58 -8 28 -15 64 -15 79 l0 29
73 -3 72 -3 7 -67z m308 -38 l0 -111 -52 6 c-138 16 -187 27 -192 43 -8 28
-26 134 -26 154 0 16 11 18 135 18 l135 0 0 -110z m320 72 c0 -21 -5 -64 -11
-95 l-11 -56 -67 -10 c-36 -5 -92 -13 -123 -16 l-58 -6 0 110 0 111 135 0 135
0 0 -38z m200 23 c0 -9 -7 -44 -16 -79 l-15 -62 -67 -12 c-36 -6 -67 -10 -69
-8 -1 1 3 41 10 89 l11 87 73 0 c59 0 73 -3 73 -15z m-848 -206 c53 -11 55
-13 72 -58 9 -25 34 -70 57 -99 l40 -54 -50 27 c-55 31 -146 116 -174 164 -20
35 -20 35 55 20z m759 -31 c-16 -24 -46 -59 -68 -79 -39 -38 -122 -93 -129
-87 -2 2 12 26 31 52 19 27 42 68 51 92 14 38 21 44 53 50 20 3 41 7 46 9 6 2
18 4 28 4 15 1 14 -5 -12 -41z m-518 -5 l87 -6 0 -98 c0 -55 -4 -99 -9 -99
-46 0 -137 77 -181 155 -36 63 -37 69 -7 61 12 -3 61 -9 110 -13z m357 3 c0
-30 -86 -142 -134 -174 -81 -54 -86 -49 -86 68 l0 100 58 1 c31 0 77 4 102 8
25 5 48 9 53 10 4 0 7 -5 7 -13z"/>
</g>
</svg>
