<?xml version="1.0" standalone="no"?>
<!DOCTYPE svg PUBLIC "-//W3C//DTD SVG 20010904//EN"
 "http://www.w3.org/TR/2001/REC-SVG-20010904/DTD/svg10.dtd">
<svg version="1.0" xmlns="http://www.w3.org/2000/svg"
 width="149.000000pt" height="139.000000pt" viewBox="0 0 149.000000 139.000000"
 preserveAspectRatio="xMidYMid meet">
<metadata>
</metadata>
<g transform="translate(0.000000,139.000000) scale(0.100000,-0.100000)"
fill="#4a4a4a" stroke="none">
<path d="M441 1374 c-137 -37 -281 -143 -350 -258 -110 -183 -121 -407 -28
-595 40 -83 144 -194 228 -244 102 -60 185 -82 314 -81 121 1 193 19 294 75
52 30 54 30 75 12 11 -11 79 -72 149 -137 125 -114 172 -146 219 -146 41 1
107 38 128 72 24 39 27 116 6 156 -8 15 -74 82 -147 149 -74 66 -144 132 -157
145 l-22 24 21 60 c30 86 36 221 15 317 -49 220 -217 396 -432 452 -74 19
-241 19 -313 -1z m281 -174 c158 -49 268 -174 299 -341 36 -199 -100 -415
-300 -473 -70 -20 -172 -20 -242 0 -200 58 -336 274 -300 473 48 259 299 417
543 341z"/>
</g>
</svg>
