<?xml version="1.0" encoding="utf-8"?>
<!-- Generator: Adobe Illustrator 24.0.2, SVG Export Plug-In . SVG Version: 6.00 Build 0)  -->
<svg version="1.1" id="Ebene_1" xmlns="http://www.w3.org/2000/svg" xmlns:xlink="http://www.w3.org/1999/xlink" x="0px" y="0px"
	 viewBox="0 0 648 193.5" style="enable-background:new 0 0 648 193.5;" xml:space="preserve">
<style type="text/css">
	.st0{fill:#0057B8;}
</style>
<g>
	<path class="st0" d="M577.4,58.7c-0.3-0.1-0.8-0.2-1.3-0.2h-0.6v2.5h0.9c0.5,0,1-0.1,1.3-0.3s0.5-0.6,0.5-1S577.9,58.9,577.4,58.7z
		"/>
	<path class="st0" d="M287.1,67.4c-7.4,0-14.9,2.9-20,6.7v21.7c5.3,4,12.1,6.3,19.7,6.3c14.5,0,22.1-6.9,22.1-17.1
		C308.8,74.9,301.3,67.4,287.1,67.4z"/>
	<path class="st0" d="M646.1,108.3L611,24.9l-0.2-0.5c-3.6-7-11.2-11.9-18.7-11.9c0,0-135-12.6-266.8-12.6
		C193.5,0,55.9,12.6,55.9,12.6c-7.4,0-15.1,4.9-18.7,11.9L37,24.9L1.9,108.3c-2.3,4.7-2.5,10.1-0.5,14.8c2,4.9,6,8.5,11,9.8
		l295.4,58.3c0,0,11.1,2.4,16.3,2.4c5.2,0,17-2.5,17-2.5L635.3,133l0.3-0.1c5-1.4,9.1-5,11-9.9C648.6,118.3,648.4,113,646.1,108.3z
		 M121.2,116.6c-23.3,0-41.5-13.1-41.5-31.8c0-19.1,18.2-31.9,41.5-31.9c23.6,0,41.6,12.8,41.6,31.9
		C162.8,103.5,144.8,116.6,121.2,116.6z M202.9,116.6c-12.6,0-27.2-3-36.3-8.6l6.9-13c6.8,5,19.2,8.2,28.8,8.2
		c12.4,0,18.3-2.7,18.3-6.7c0-4.7-6.4-6-19.3-6.6c-19.6-0.8-31.8-5-31.8-17.5c0-12.5,14.2-19.6,34.2-19.6c12.8,0,24.4,2.3,33.9,7.3
		L230.1,72c-6.8-3.6-17.2-5.9-26.7-5.9c-11.1,0-16.3,2.3-16.3,6.2c0,3.7,5.6,5.5,19.2,6c18.2,0.6,33.5,4.9,33.5,17.8
		C239.8,109.5,223.6,116.6,202.9,116.6z M291.3,116.2c-10.1,0-18.2-0.8-24.3-4.3v2.6h-18V31.7h18v27.9c6.2-4,15.3-6.7,24.1-6.7
		c21.9,0,36.6,13.6,36.6,31.9C327.7,103.2,312.7,116.2,291.3,116.2z M377.9,116.6c-23.3,0-41.5-13.1-41.5-31.8
		c0-19.1,18.2-31.9,41.5-31.9c23.6,0,41.6,12.8,41.6,31.9C419.5,103.5,401.5,116.6,377.9,116.6z M482,70.9
		c-4.2-1.9-9.4-2.6-14.5-2.6c-7.7,0-15.4,2-21.5,5.4v40.8h-18V54.9h18v2.6c8.7-4.1,16.2-4.3,24.8-4.3c3.7,0,7.6,0.2,11.1,1.3V70.9z
		 M564.6,114.5h-18V81c0-10-6.8-12.6-16.4-12.6c-8.2,0-14.5,1.7-20.7,5.4v40.7h-18V54.9h18v2.7c8.5-4,16.6-4.6,26.5-4.6
		c16.8,0,28.7,7.6,28.7,24.4V114.5z M582.3,67.1c-1.5,1.5-3.4,2.2-5.5,2.2c-2.2,0-4.1-0.8-5.6-2.3s-2.3-3.4-2.3-5.6
		c0-2.3,0.8-4.2,2.5-5.8c1.5-1.4,3.4-2.1,5.4-2.1c2.2,0,4,0.8,5.6,2.3s2.3,3.4,2.3,5.6C584.6,63.6,583.8,65.5,582.3,67.1z"/>
	<path class="st0" d="M377.8,67.3c-13.8,0-22.5,7-22.5,17.7c0,10.4,8.4,17.3,22.6,17.3c13.9,0,22.6-6.9,22.6-17.3
		C400.5,74.3,392,67.3,377.8,67.3z"/>
	<path class="st0" d="M576.7,54.8c-1.8,0-3.4,0.7-4.7,2c-1.3,1.3-1.9,2.8-1.9,4.6c0,1.8,0.6,3.4,1.9,4.7c1.3,1.3,2.8,1.9,4.6,1.9
		c1.8,0,3.3-0.6,4.6-1.9c1.3-1.3,1.9-2.9,1.9-4.7c0-1.8-0.6-3.3-1.9-4.6C580.1,55.5,578.5,54.8,576.7,54.8z M578.3,65.8
		c-0.1-0.3-0.1-0.7-0.1-1.2c0-0.5-0.1-0.9-0.1-1.1c-0.1-0.3-0.3-0.5-0.6-0.6c-0.2-0.1-0.4-0.1-0.8-0.1l-0.5,0h-0.5v3.1h-2.3V57
		c0.5,0,1.4,0,2.4,0c1.1,0,1.7,0,1.8,0c0.7,0,1.3,0.2,1.7,0.5c0.8,0.4,1.2,1.1,1.2,2.1c0,0.7-0.2,1.3-0.6,1.6
		c-0.4,0.3-0.9,0.5-1.5,0.6c0.6,0.1,1,0.3,1.2,0.5c0.5,0.4,0.8,1.1,0.8,2V65c0,0.1,0,0.2,0,0.3c0,0.1,0,0.2,0.1,0.3l0.1,0.2H578.3z"
		/>
	<path class="st0" d="M121.1,67.3c-13.8,0-22.5,7-22.5,17.7c0,10.4,8.4,17.3,22.6,17.3c13.9,0,22.6-6.9,22.6-17.3
		C143.8,74.3,135.3,67.3,121.1,67.3z"/>
</g>
</svg>
